<?xml version="1.0" standalone="no"?>
<!DOCTYPE svg PUBLIC "-//W3C//DTD SVG 20010904//EN"
 "http://www.w3.org/TR/2001/REC-SVG-20010904/DTD/svg10.dtd">
<svg version="1.0" xmlns="http://www.w3.org/2000/svg"
 width="225.000000pt" height="225.000000pt" viewBox="0 0 225.000000 225.000000"
 preserveAspectRatio="xMidYMid meet">
<metadata>
Created by potrace 1.11, written by Peter Selinger 2001-2013
</metadata>
<g transform="translate(0.000000,225.000000) scale(0.100000,-0.100000)"
fill="#000000" stroke="none">
<path d="M682 2238 c3 -7 14 -14 26 -16 13 -2 22 -11 22 -21 0 -25 -24 -43
-46 -35 -14 6 -13 2 6 -15 l25 -22 -33 16 c-41 20 -50 14 -28 -19 9 -15 12
-27 6 -31 -6 -3 -10 0 -10 8 0 9 -9 13 -25 11 -36 -3 -53 -20 -49 -47 2 -12 6
-40 9 -62 l5 -40 -14 35 c-8 19 -15 28 -15 18 -1 -11 -7 -15 -19 -11 -21 5
-46 -20 -40 -39 7 -20 42 -15 56 7 11 19 12 18 10 -10 -3 -24 -9 -31 -33 -36
-22 -4 -26 -8 -14 -13 9 -4 22 -6 30 -4 9 2 14 -5 13 -19 -1 -28 51 -48 104
-39 20 3 41 1 49 -6 8 -6 33 -8 59 -5 36 4 44 2 40 -9 -6 -15 9 -19 18 -5 3 4
28 9 56 10 28 0 56 4 62 7 7 4 8 2 4 -5 -6 -8 0 -10 18 -5 15 3 26 2 26 -4 0
-5 13 -15 29 -22 23 -9 38 -9 75 4 25 9 65 16 89 16 121 -1 162 2 174 11 9 9
21 4 46 -17 32 -28 34 -31 29 -85 -4 -44 0 -64 19 -100 20 -38 23 -61 26 -173
2 -125 10 -156 38 -156 16 0 39 49 36 80 -1 16 6 33 18 45 12 10 21 23 21 30
0 16 43 65 57 65 7 0 24 -11 38 -24 24 -22 26 -30 23 -89 -3 -55 -8 -69 -32
-95 -16 -16 -30 -43 -32 -59 l-3 -28 17 22 c9 12 28 27 42 32 17 7 20 10 8 10
-22 1 -23 14 -3 31 12 10 15 9 15 -6 1 -18 1 -18 15 0 8 11 15 25 14 30 0 6
-3 5 -6 -1 -2 -7 -9 -13 -14 -13 -11 0 -4 63 7 67 12 4 11 315 0 373 -5 25
-22 64 -38 88 -16 24 -31 59 -33 78 -4 40 -17 60 -58 81 l-29 15 27 14 c15 8
34 14 41 14 8 0 14 4 14 8 0 11 -91 13 -105 2 -8 -7 -34 -3 -78 11 -51 16 -74
30 -101 61 -40 45 -45 61 -18 56 9 -2 16 -11 14 -19 -3 -24 55 -70 96 -76 26
-4 34 -2 27 5 -5 6 -23 12 -40 14 -25 2 -29 7 -27 26 2 14 -4 29 -15 38 -17
12 -17 13 0 14 25 0 21 13 -10 28 -37 17 -46 15 -61 -9 -7 -11 -18 -18 -25
-16 -7 2 -22 -5 -35 -16 l-23 -21 -32 32 c-17 18 -27 32 -21 32 6 0 19 -9 29
-20 22 -25 34 -25 51 -2 18 24 17 31 -5 29 -12 -1 -17 -6 -13 -17 4 -12 2 -12
-15 3 -30 26 -99 23 -114 -5 l-12 -22 -8 22 c-6 15 -14 20 -26 16 -10 -3 -24
-8 -32 -10 -8 -3 -12 -7 -9 -10 3 -2 17 0 31 5 21 8 26 7 31 -12 3 -11 4 -23
2 -24 -3 -3 -42 12 -111 42 -36 16 -97 16 -92 1 3 -6 11 -9 18 -7 22 6 66 11
47 5 -10 -3 -18 -10 -18 -15 0 -6 -4 -8 -9 -4 -5 3 -13 1 -16 -5 -4 -7 -16 -1
-31 15 -19 21 -24 23 -24 9 0 -24 -29 -54 -46 -47 -8 3 -14 0 -14 -6 0 -6 -4
-11 -10 -11 -5 0 -10 9 -10 21 0 15 5 19 19 14 12 -3 21 0 25 10 5 13 0 16
-24 13 -19 -2 -34 3 -40 12 -9 13 -10 13 -10 0 0 -9 5 -21 12 -28 6 -6 9 -15
5 -19 -4 -4 -13 -1 -19 5 -10 10 -16 6 -28 -18 l-16 -31 0 40 c1 26 6 41 14
41 6 0 12 5 12 10 0 6 -18 10 -41 10 -28 0 -39 -4 -37 -12z m233 -38 c3 -5 -1
-10 -9 -10 -9 0 -16 5 -16 10 0 6 4 10 9 10 6 0 13 -4 16 -10z m130 -11 c5 -5
-5 -4 -23 2 -17 6 -32 13 -32 16 0 7 43 -8 55 -18z m550 -119 c-3 -5 -11 -10
-16 -10 -6 0 -7 5 -4 10 3 6 11 10 16 10 6 0 7 -4 4 -10z m-981 -75 c-4 -8 -8
-15 -10 -15 -2 0 -4 7 -4 15 0 8 4 15 10 15 5 0 7 -7 4 -15z"/>
<path d="M1035 2240 c3 -5 8 -10 11 -10 2 0 4 5 4 10 0 6 -5 10 -11 10 -5 0
-7 -4 -4 -10z"/>
<path d="M1320 2240 c0 -5 5 -10 10 -10 6 0 10 5 10 10 0 6 -4 10 -10 10 -5 0
-10 -4 -10 -10z"/>
<path d="M640 2190 c0 -5 5 -10 10 -10 6 0 10 5 10 10 0 6 -4 10 -10 10 -5 0
-10 -4 -10 -10z"/>
<path d="M1511 2183 c-12 -13 -12 -16 0 -24 10 -6 1 -9 -26 -10 l-40 -1 38 -9
c21 -5 46 -5 55 -1 9 5 27 7 40 6 13 -1 22 4 22 12 0 8 -7 14 -16 14 -8 0 -12
5 -9 10 3 6 0 10 -7 11 -7 0 -20 2 -28 4 -8 1 -21 -4 -29 -12z"/>
<path d="M560 2159 c0 -5 5 -7 10 -4 6 3 10 8 10 11 0 2 -4 4 -10 4 -5 0 -10
-5 -10 -11z"/>
<path d="M610 2150 c0 -5 5 -10 11 -10 5 0 7 5 4 10 -3 6 -8 10 -11 10 -2 0
-4 -4 -4 -10z"/>
<path d="M480 2081 c0 -14 5 -18 20 -14 24 6 26 19 4 27 -23 9 -24 8 -24 -13z"/>
<path d="M1665 2050 c-3 -5 -1 -10 4 -10 6 0 11 5 11 10 0 6 -2 10 -4 10 -3 0
-8 -4 -11 -10z"/>
<path d="M1630 2041 c0 -6 5 -13 10 -16 6 -3 10 1 10 9 0 9 -4 16 -10 16 -5 0
-10 -4 -10 -9z"/>
<path d="M1726 1993 c-6 -14 -5 -15 5 -6 7 7 10 15 7 18 -3 3 -9 -2 -12 -12z"/>
<path d="M1690 1928 c1 -7 12 -26 25 -43 19 -23 25 -26 25 -12 0 21 -28 67
-41 67 -5 0 -9 -6 -9 -12z"/>
<path d="M505 1880 c-3 -5 1 -10 10 -10 9 0 13 5 10 10 -3 6 -8 10 -10 10 -2
0 -7 -4 -10 -10z"/>
<path d="M480 1812 c0 -31 -4 -42 -15 -42 -8 0 -15 -5 -15 -11 0 -5 -4 -7 -10
-4 -5 3 -10 2 -10 -4 0 -5 5 -13 10 -16 7 -4 6 -13 -1 -26 -6 -12 -8 -23 -5
-27 9 -8 14 0 18 28 4 32 30 64 39 48 4 -6 4 11 2 38 -7 62 -13 70 -13 16z"/>
<path d="M506 1835 c-3 -9 -6 -22 -5 -28 0 -7 5 -1 10 12 5 13 8 26 5 28 -2 2
-6 -3 -10 -12z"/>
<path d="M1752 1810 c0 -14 2 -19 5 -12 2 6 2 18 0 25 -3 6 -5 1 -5 -13z"/>
<path d="M380 1754 c0 -18 25 -46 34 -37 3 4 6 17 6 30 0 16 -6 23 -20 23 -12
0 -20 -7 -20 -16z"/>
<path d="M400 1679 c0 -5 5 -7 10 -4 6 3 10 8 10 11 0 2 -4 4 -10 4 -5 0 -10
-5 -10 -11z"/>
<path d="M593 1654 c-4 -10 4 -25 21 -40 14 -14 26 -29 26 -34 0 -13 59 -42
70 -35 28 17 -4 66 -72 108 -34 21 -37 21 -45 1z"/>
<path d="M406 1619 c-8 -42 -7 -57 3 -39 14 25 22 70 12 70 -4 0 -11 -14 -15
-31z"/>
<path d="M1157 1591 c-75 -21 -97 -35 -97 -62 0 -23 40 -26 73 -5 12 8 47 19
77 26 68 15 85 23 85 41 0 21 -60 21 -138 0z"/>
<path d="M377 1540 c-10 -36 -9 -90 2 -90 5 0 14 7 21 15 9 11 9 23 -2 57 -13
39 -15 41 -21 18z"/>
<path d="M401 1550 c0 -8 4 -22 9 -30 12 -18 12 -2 0 25 -6 13 -9 15 -9 5z"/>
<path d="M482 1435 c6 -95 26 -119 114 -140 110 -27 196 -12 229 38 16 25 105
58 140 53 14 -2 23 -15 31 -42 13 -49 37 -61 144 -75 44 -5 92 -14 106 -19 46
-18 73 -11 116 29 64 59 56 117 -20 142 -20 7 -45 23 -55 36 -30 37 -54 47
-88 33 -16 -7 -29 -17 -29 -22 0 -6 -23 -7 -60 -3 -58 7 -120 -6 -120 -25 0
-4 -21 -10 -47 -13 -27 -3 -58 -9 -70 -12 -17 -6 -23 -3 -23 9 0 8 -10 22 -22
30 -41 26 -151 58 -178 51 -31 -7 -128 -6 -154 1 -18 6 -18 1 -14 -71z m81 38
c-7 -2 -21 -2 -30 0 -10 3 -4 5 12 5 17 0 24 -2 18 -5z m20 -23 c10 0 17 -8
17 -20 0 -55 90 -83 112 -35 6 14 19 25 28 25 37 0 52 -48 26 -83 -12 -16 -22
-17 -102 -7 -49 5 -92 10 -96 10 -11 0 -34 49 -43 89 -7 32 -6 34 16 28 13 -4
32 -7 42 -7z m220 -14 c9 -7 17 -24 16 -37 l0 -24 -10 24 c-5 13 -17 30 -27
37 -9 7 -12 13 -7 13 6 0 18 -6 28 -13z m322 -5 c14 -6 3 -10 -40 -13 -64 -6
-78 -3 -55 12 18 11 67 12 95 1z m50 -57 c28 -28 61 -31 86 -8 31 28 63 1 41
-33 -11 -18 -118 -36 -161 -28 -42 8 -71 31 -71 57 0 10 -4 18 -10 18 -20 0
-9 19 13 22 41 6 78 -4 102 -28z m193 -21 c3 -23 -53 -83 -77 -83 -10 1 -6 6
10 15 29 16 55 67 44 86 -5 7 -3 10 6 7 8 -3 15 -14 17 -25z"/>
<path d="M401 1434 c0 -11 3 -14 6 -6 3 7 2 16 -1 19 -3 4 -6 -2 -5 -13z"/>
<path d="M354 1354 c3 -9 3 -21 -1 -27 -13 -21 -12 -37 3 -37 10 0 14 -12 14
-40 0 -22 5 -40 10 -40 6 0 10 -15 10 -34 0 -22 6 -36 16 -40 23 -9 28 -1 15
22 -15 29 -14 45 4 38 12 -4 13 -2 3 14 -8 12 -15 15 -19 8 -8 -12 -16 28 -18
87 -2 39 -15 65 -33 65 -6 0 -7 -7 -4 -16z"/>
<path d="M1746 1291 c-4 -7 -5 -15 -2 -18 9 -9 19 4 14 18 -4 11 -6 11 -12 0z"/>
<path d="M407 1265 c-4 -8 -2 -17 3 -20 6 -4 10 3 10 14 0 25 -6 27 -13 6z"/>
<path d="M877 1218 c-9 -18 -24 -43 -33 -55 -15 -22 -15 -23 3 -23 10 0 29 7
42 16 23 16 25 16 58 -20 39 -42 49 -44 58 -15 5 15 -1 30 -23 53 -16 17 -35
41 -41 54 -17 32 -45 27 -64 -10z"/>
<path d="M1640 1198 c0 -17 3 -19 9 -9 5 7 15 17 22 22 10 6 8 9 -8 9 -17 0
-23 -6 -23 -22z"/>
<path d="M1620 1189 c0 -8 -11 -36 -25 -63 -14 -27 -22 -52 -19 -55 7 -8 24
20 24 42 0 9 4 17 9 17 11 0 26 59 17 67 -3 4 -6 0 -6 -8z"/>
<path d="M430 1170 c0 -22 16 -43 30 -38 8 2 5 11 -9 28 -14 17 -20 20 -21 10z"/>
<path d="M1641 1144 c0 -11 3 -14 6 -6 3 7 2 16 -1 19 -3 4 -6 -2 -5 -13z"/>
<path d="M480 1054 c0 -14 4 -23 10 -19 6 4 8 11 5 16 -3 5 1 6 9 3 9 -3 16
-10 16 -15 0 -13 37 -48 44 -41 11 10 6 22 -9 22 -8 0 -15 4 -15 10 0 15 -33
50 -47 50 -7 0 -13 -11 -13 -26z"/>
<path d="M1544 1018 c-23 -28 -24 -48 -4 -48 25 0 32 13 22 40 -6 17 -10 19
-18 8z"/>
<path d="M498 993 c12 -2 22 -9 22 -14 0 -5 8 -9 18 -9 15 1 15 2 -2 15 -11 8
-29 14 -40 14 -19 -2 -19 -2 2 -6z"/>
<path d="M1387 929 c-22 -11 -36 -23 -33 -27 4 -3 12 0 18 6 16 16 45 15 51 0
2 -7 8 -9 13 -5 5 4 2 12 -6 18 -13 8 -13 10 0 19 27 17 -4 10 -43 -11z"/>
<path d="M670 935 c0 -3 15 -15 33 -26 l32 -21 -40 6 c-22 3 -34 3 -27 0 6 -3
12 -14 12 -24 0 -14 8 -18 34 -18 28 0 34 3 31 19 -3 12 2 19 13 20 13 1 13 2
-3 8 -11 3 -35 14 -52 24 -18 10 -33 15 -33 12z"/>
<path d="M1318 893 c7 -3 16 -2 19 1 4 3 -2 6 -13 5 -11 0 -14 -3 -6 -6z"/>
<path d="M1383 882 c-1 -17 41 -45 52 -34 11 11 4 40 -11 46 -27 10 -40 7 -41
-12z"/>
<path d="M800 870 c0 -5 5 -10 11 -10 5 0 7 5 4 10 -3 6 -8 10 -11 10 -2 0 -4
-4 -4 -10z"/>
<path d="M640 833 c0 -7 4 -13 9 -13 5 0 11 6 14 13 3 8 -1 14 -9 14 -8 0 -14
-6 -14 -14z"/>
<path d="M774 837 c-10 -26 8 -40 37 -28 13 5 18 10 10 10 -8 1 -20 9 -27 19
-12 16 -13 16 -20 -1z"/>
<path d="M830 836 c8 -7 31 -17 50 -20 19 -3 28 -3 20 0 -83 35 -85 35 -70 20z"/>
<path d="M895 840 c27 -12 43 -12 25 0 -8 5 -22 9 -30 9 -10 0 -8 -3 5 -9z"/>
<path d="M1223 842 c-12 -2 -26 -9 -31 -15 -8 -9 2 -12 39 -12 27 0 49 3 49 8
0 4 0 11 0 15 0 8 -19 9 -57 4z"/>
<path d="M1306 837 c3 -10 9 -15 12 -12 3 3 0 11 -7 18 -10 9 -11 8 -5 -6z"/>
<path d="M1980 801 c0 -11 26 -22 34 -14 12 12 5 23 -14 23 -11 0 -20 -4 -20
-9z"/>
<path d="M1910 776 c0 -7 6 -19 13 -25 17 -13 54 10 43 27 -10 17 -56 15 -56
-2z"/>
<path d="M2034 779 c-8 -13 24 -41 41 -36 5 2 10 12 10 23 0 22 -39 32 -51 13z"/>
<path d="M1060 765 c0 -10 10 -15 30 -15 20 0 30 5 30 15 0 10 -10 15 -30 15
-20 0 -30 -5 -30 -15z"/>
<path d="M1454 741 c4 -5 1 -11 -6 -13 -8 -3 -6 -7 5 -11 9 -3 17 -2 17 3 0
13 57 13 65 0 3 -5 1 -10 -4 -10 -6 0 -11 -7 -11 -15 0 -19 19 -20 26 -1 3 8
15 11 30 8 15 -3 24 0 24 8 0 7 -6 10 -14 7 -22 -9 -28 5 -8 19 15 11 7 13
-56 14 -42 0 -71 -4 -68 -9z"/>
<path d="M560 714 c0 -17 22 -14 28 4 2 7 -3 12 -12 12 -9 0 -16 -7 -16 -16z"/>
<path d="M1628 723 c12 -2 30 -2 40 0 9 3 -1 5 -23 4 -22 0 -30 -2 -17 -4z"/>
<path d="M1719 710 c30 -25 41 -25 41 0 0 16 -7 20 -32 20 l-33 -1 24 -19z"/>
<path d="M1840 720 c0 -5 7 -10 15 -10 8 0 15 5 15 10 0 6 -7 10 -15 10 -8 0
-15 -4 -15 -10z"/>
<path d="M1980 716 c14 -8 32 -15 41 -16 9 0 22 -7 29 -15 18 -22 26 -18 27
13 0 15 -1 19 -4 9 -3 -12 -9 -15 -16 -9 -7 5 -23 12 -37 14 -14 3 -34 9 -45
12 -13 5 -12 2 5 -8z"/>
<path d="M2018 723 c7 -3 16 -2 19 1 4 3 -2 6 -13 5 -11 0 -14 -3 -6 -6z"/>
<path d="M1945 706 c20 -17 20 -17 -3 -13 -13 3 -20 1 -16 -5 3 -5 20 -6 37
-3 l32 6 -25 -15 c-18 -10 -30 -11 -43 -4 -21 11 -47 -4 -28 -16 6 -4 11 -2
11 4 0 6 5 8 11 4 16 -10 -10 -24 -30 -16 -14 5 -14 4 -1 -13 11 -14 12 -19 3
-22 -7 -3 -13 -11 -13 -19 0 -8 -7 -17 -15 -20 -19 -8 -19 -70 0 -104 19 -33
19 -75 -1 -94 -20 -20 -35 -21 -28 -1 4 8 10 12 15 9 5 -3 8 14 8 38 l-2 43
-7 -35 c-6 -26 -8 -13 -9 51 -1 94 -15 149 -37 149 -8 0 -14 5 -14 12 0 6 -6
4 -13 -6 -13 -17 -14 -17 -28 0 -12 16 -12 17 3 11 12 -4 15 -2 11 9 -3 7 -11
14 -19 14 -8 0 -14 5 -14 10 0 6 -11 10 -25 10 -33 0 -32 -16 3 -25 l27 -8
-30 -8 c-16 -4 -40 -11 -52 -14 -17 -5 -23 -3 -23 8 0 8 -8 17 -18 19 -13 4
-18 -1 -20 -20 -2 -25 -2 -25 13 -6 14 19 14 19 15 -2 0 -12 -6 -27 -14 -33
-11 -9 -15 -6 -20 15 -8 29 -28 54 -45 54 -6 0 -11 -4 -11 -10 0 -5 -4 -10
-10 -10 -5 0 -7 7 -3 16 4 12 2 15 -8 12 -8 -3 -13 -12 -13 -21 2 -23 -60 -20
-86 5 -16 15 -18 23 -10 28 8 5 7 9 -5 14 -28 10 -33 7 -37 -28 -4 -34 -3 -34
32 -30 31 3 33 2 15 -8 -11 -7 -43 -12 -72 -12 -28 0 -49 -4 -47 -8 3 -4 0 -8
-5 -8 -6 0 -11 4 -11 9 0 10 -39 24 -60 21 -8 -1 -23 -9 -32 -17 -18 -16 -83
-9 -72 8 3 5 -4 9 -15 9 -12 0 -21 5 -21 10 0 14 -30 12 -62 -4 -18 -10 -29
-11 -36 -4 -8 8 -10 0 -9 -24 2 -28 6 -34 20 -30 16 4 22 -8 17 -33 -1 -5 4
-4 11 2 10 10 10 16 1 25 -17 17 -15 48 2 48 8 0 17 -8 19 -17 4 -17 5 -17 6
0 1 19 7 20 36 6 18 -9 18 -9 -3 -5 -14 3 -22 0 -20 -6 2 -6 26 -12 53 -12 34
-1 50 -6 53 -16 4 -12 2 -13 -9 -2 -18 17 -48 14 -94 -11 -36 -20 -41 -27 -51
-79 -6 -32 -14 -64 -17 -71 -3 -8 -2 -32 3 -52 6 -28 5 -41 -6 -52 -16 -17
-38 -7 -30 13 3 7 1 16 -4 19 -16 10 -12 35 5 29 10 -4 15 0 15 11 0 9 -4 14
-9 10 -14 -8 -23 31 -16 66 8 35 26 34 37 -2 6 -20 7 -19 3 7 -2 17 1 36 7 42
6 6 7 18 3 29 -5 10 -8 20 -7 24 2 10 -70 10 -83 -1 -10 -8 -13 -6 -11 7 0 9
-7 19 -17 21 -15 3 -18 0 -12 -17 5 -18 3 -19 -30 -14 -42 7 -71 -14 -84 -61
-7 -27 -9 -29 -16 -11 -30 83 -50 125 -59 125 -6 0 -2 7 8 15 30 23 12 28 -25
7 -21 -11 -38 -31 -45 -51 -10 -31 -10 -31 -21 -9 -6 13 -14 34 -17 48 -4 20
-12 26 -36 28 -35 3 -39 -11 -10 -35 20 -17 28 -73 11 -73 -16 0 -20 -28 -4
-34 10 -4 17 1 20 15 4 16 8 17 14 7 6 -9 9 -6 9 12 1 19 3 22 9 10 11 -18 3
-70 -10 -70 -5 0 -9 7 -9 16 0 8 -4 12 -10 9 -16 -10 -12 -45 5 -45 17 0 21
-45 5 -55 -5 -3 -10 -11 -10 -16 0 -6 5 -7 11 -3 7 4 9 0 5 -14 -4 -11 -2 -23
4 -27 5 -3 10 -11 10 -17 0 -6 -8 -4 -18 5 -10 10 -25 17 -33 16 -9 0 -6 -4 6
-10 15 -7 11 -8 -15 -3 -19 3 -41 6 -47 7 -16 0 -17 17 -2 17 5 0 7 5 4 10 -4
6 8 10 28 10 35 0 47 12 47 50 0 25 -37 33 -102 21 -5 0 -8 -14 -8 -31 0 -16
3 -30 8 -30 4 0 7 -21 8 -46 1 -45 1 -45 -11 -18 l-12 29 -5 -30 c-3 -16 -9
-38 -13 -48 -4 -10 -3 -17 4 -17 6 0 11 7 11 15 0 8 5 15 10 15 14 0 12 -16
-2 -27 -20 -15 -50 -24 -43 -13 3 6 -1 10 -9 10 -24 0 -30 -22 -10 -37 16 -12
17 -15 4 -23 -8 -5 -17 -7 -21 -4 -4 2 -12 -3 -19 -11 -10 -12 -9 -16 2 -20
24 -9 43 -1 48 20 4 11 15 20 25 21 40 2 51 13 47 48 -3 28 0 34 20 41 19 6
20 8 5 12 -9 2 -17 10 -17 18 0 8 7 11 20 8 16 -4 19 -12 16 -39 -3 -19 1 -39
8 -47 7 -6 12 -16 12 -22 -1 -5 19 -11 44 -12 25 -1 36 1 26 4 -10 3 -33 14
-50 24 -30 19 -30 19 -9 25 13 4 23 11 23 16 0 5 -4 7 -8 4 -4 -2 -14 -1 -22
4 -13 8 -12 12 5 24 19 14 21 12 31 -17 21 -63 67 -62 89 3 16 47 35 50 35 6
0 -37 21 -57 50 -49 12 4 12 3 1 -5 -10 -8 -8 -13 10 -25 12 -9 26 -14 31 -11
11 7 10 42 -2 49 -5 3 -10 0 -10 -7 0 -10 -2 -10 -9 1 -5 8 -7 20 -4 28 4 9
11 6 25 -12 14 -18 29 -25 53 -25 18 0 36 -6 38 -12 3 -7 6 -4 6 7 1 12 4 16
9 9 21 -31 97 -45 120 -22 9 9 12 8 12 -5 0 -9 -5 -17 -12 -17 -27 0 11 -22
42 -24 29 -2 30 -1 14 11 -13 9 -20 10 -25 2 -5 -8 -8 -8 -13 0 -4 6 -2 11 4
11 6 0 8 5 4 11 -5 8 -1 8 14 0 11 -6 28 -8 36 -5 21 8 34 -25 15 -37 -11 -7
-11 -9 4 -9 9 0 17 7 17 15 0 8 5 15 10 15 6 0 10 -7 10 -15 0 -8 5 -15 11
-15 6 0 8 8 4 19 -4 13 0 23 12 30 14 8 16 12 6 22 -11 11 -13 9 -13 -6 0 -15
-3 -16 -12 -7 -10 10 -10 15 -1 20 7 4 9 13 4 20 -6 9 -12 4 -23 -18 -9 -18
-17 -28 -20 -24 -2 5 6 28 18 51 l21 42 10 -32 c7 -27 14 -32 38 -32 l30 0 -4
83 c-3 70 -1 82 13 82 11 0 16 -9 16 -30 0 -23 4 -28 16 -23 13 5 15 2 10 -14
-6 -18 -3 -21 19 -19 14 0 25 7 25 14 0 7 -4 10 -10 7 -5 -3 -10 3 -10 15 0
12 -4 19 -9 15 -5 -3 -12 -1 -16 5 -3 5 3 10 14 10 11 0 22 -8 24 -17 3 -11 5
-8 6 9 1 25 -2 27 -29 24 -38 -4 -37 2 5 37 l33 27 1 -66 c0 -42 5 -73 14 -83
19 -22 28 -51 17 -51 -6 0 -10 -4 -10 -9 0 -5 10 -7 23 -4 14 3 18 2 10 -4 -7
-5 21 -8 67 -9 44 0 74 3 68 7 -7 5 -9 11 -5 15 3 4 13 1 22 -6 8 -7 30 -14
48 -16 23 -3 28 -1 17 6 -13 9 -13 10 0 10 13 0 13 1 0 10 -13 9 -13 11 0 20
11 8 8 9 -12 4 -23 -5 -29 -2 -36 17 -6 15 -11 18 -16 11 -10 -16 1 -31 32
-44 15 -6 22 -12 16 -15 -6 -2 -22 1 -36 6 -29 11 -43 47 -22 55 8 3 14 13 14
21 0 9 -4 14 -8 11 -4 -2 -14 -1 -21 3 -11 7 -11 13 -1 27 11 18 11 18 6 -1
-6 -19 -5 -19 8 -2 12 16 14 15 20 -15 3 -17 13 -39 22 -49 18 -20 54 -14 54
10 0 30 -31 224 -37 234 -3 6 -1 7 5 3 7 -4 12 -1 12 6 0 8 5 6 11 -5 5 -9 9
-34 8 -55 -2 -20 1 -66 5 -102 4 -36 8 -74 9 -85 1 -17 8 -20 41 -20 23 1 47
4 54 8 8 6 12 2 12 -12 0 -11 10 -27 23 -36 21 -13 29 -13 89 9 37 14 68 23
70 22 11 -9 68 -14 63 -6 -3 6 1 10 9 10 9 0 16 6 16 13 0 6 12 20 25 30 24
18 25 17 25 -4 0 -15 -5 -19 -15 -15 -8 3 -15 0 -15 -6 0 -15 -40 -48 -59 -49
-12 0 -11 -3 4 -10 17 -8 15 -8 -7 -4 -16 3 -28 1 -28 -5 0 -5 7 -10 15 -10
15 0 22 -29 8 -31 -5 0 -15 -2 -24 -4 -11 -2 -16 4 -15 18 1 14 -6 23 -19 25
-16 2 -17 1 -5 -7 21 -14 6 -27 -63 -55 -31 -13 -54 -26 -50 -29 13 -13 56 -7
68 10 9 13 35 17 119 21 81 3 106 8 106 18 0 10 -14 14 -45 14 -49 0 -59 15
-28 45 15 16 18 16 28 1 13 -18 35 -22 35 -6 0 6 -7 10 -15 10 -8 0 -15 5 -15
11 0 6 9 9 20 6 13 -3 20 0 20 9 0 8 -3 14 -7 14 -5 0 -8 17 -7 38 0 20 -4 45
-9 56 -6 13 -6 16 2 12 6 -4 11 0 11 8 0 9 -2 16 -4 16 -9 0 -92 -46 -105 -58
-7 -7 -16 -10 -19 -7 -4 3 0 10 8 15 10 7 11 10 3 10 -7 0 -13 4 -13 10 0 5
14 7 33 4 24 -4 28 -3 17 5 -8 6 -12 11 -7 12 4 1 12 3 17 4 6 1 16 3 23 4 7
0 22 8 33 17 18 15 18 15 -3 5 -12 -6 -33 -11 -47 -11 -14 0 -28 -4 -31 -10
-3 -5 -14 -10 -23 -10 -26 1 28 29 56 30 12 0 34 7 47 16 13 9 29 13 34 10 7
-4 6 4 0 24 -11 31 -43 47 -78 37 -13 -3 -18 0 -15 8 3 7 0 16 -6 20 -6 3 -10
3 -9 -2 3 -19 -2 -31 -16 -37 -9 -3 -15 0 -15 10 0 8 4 13 9 9 5 -3 12 -1 15
4 4 5 -2 11 -11 14 -11 2 -1 7 22 12 23 4 50 18 63 33 25 29 29 40 7 22 -11
-9 -15 -10 -15 -1 0 18 -21 36 -55 48 -16 6 -39 14 -50 18 l-20 8 20 -17z
m-452 -79 c4 3 7 -3 7 -15 0 -26 -4 -27 -24 -6 -20 19 -22 41 -3 25 8 -6 17
-8 20 -4z m-3 -63 c0 -8 -4 -12 -10 -9 -5 3 -10 13 -10 21 0 8 5 12 10 9 6 -3
10 -13 10 -21z m400 -19 c-6 -30 -8 -33 -9 -13 -1 25 8 62 14 56 2 -2 -1 -21
-5 -43z m-420 -35 c-6 -11 -8 -20 -4 -20 3 0 2 -6 -4 -12 -9 -13 -28 -131 -21
-134 2 -1 -5 -11 -15 -23 -11 -12 -14 -21 -8 -21 6 0 13 4 16 9 3 4 17 6 31 4
20 -4 27 0 35 21 5 14 14 26 20 26 13 0 13 -17 -1 -26 -6 -3 -8 -15 -6 -25 6
-23 -27 -49 -61 -46 -25 1 -27 7 -9 26 10 11 8 11 -10 2 -27 -14 -46 -14 -38
-1 3 6 1 10 -6 10 -6 0 -1 8 11 18 20 16 22 27 22 95 -1 42 2 79 7 81 4 3 7
-7 5 -22 -3 -22 -1 -21 9 8 6 19 15 40 19 46 5 8 -1 12 -17 12 -19 0 -25 -6
-26 -22 0 -20 -1 -20 -8 -1 -11 25 -5 35 20 35 10 0 19 6 19 12 0 7 7 3 15
-10 12 -16 13 -26 5 -42z m-233 -18 c-16 -15 -17 -15 -17 6 0 15 4 21 11 16 8
-4 9 1 5 17 l-6 24 12 -23 c9 -19 8 -26 -5 -40z m533 33 c0 -8 -4 -15 -10 -15
-5 0 -7 7 -4 15 4 8 8 15 10 15 2 0 4 -7 4 -15z m-622 -30 c-2 -31 -6 -36 -37
-45 -45 -12 -54 -4 -10 9 l34 11 -32 -5 c-61 -9 -36 26 45 64 1 0 2 -15 0 -34z
m-273 -28 c-4 -17 -7 -56 -8 -85 -2 -29 -7 -52 -12 -52 -15 -1 -18 50 -5 75 7
12 10 31 7 41 -3 13 -5 11 -6 -8 0 -16 -5 -28 -11 -28 -5 0 -10 -12 -11 -27
-1 -23 -3 -21 -10 11 -5 22 -7 44 -5 50 2 6 5 3 5 -6 1 -25 21 -23 21 2 0 11
-4 20 -10 20 -5 0 -10 7 -10 15 0 18 17 20 22 3 3 -8 9 -6 19 5 20 23 21 21
14 -16z m-218 1 c-3 -8 -6 -5 -6 6 -1 11 2 17 5 13 3 -3 4 -12 1 -19z m13 -28
c0 -5 -5 -10 -11 -10 -5 0 -7 5 -4 10 3 6 8 10 11 10 2 0 4 -4 4 -10z m1060
-21 c0 -10 -4 -19 -10 -19 -5 0 -10 12 -10 26 0 14 4 23 10 19 6 -3 10 -15 10
-26z m-570 -60 c0 -17 -4 -28 -10 -24 -5 3 -7 12 -3 21 5 13 1 13 -23 2 -16
-7 -35 -20 -42 -28 -12 -13 -13 -13 -9 1 3 9 1 21 -5 27 -8 8 -3 10 18 8 16
-2 38 3 49 10 26 18 25 19 25 -17z m-481 -12 c-9 -7 -18 -19 -22 -27 -4 -11
-6 -9 -6 6 -1 25 7 34 28 34 15 -1 15 -2 0 -13z"/>
<path d="M1460 280 c0 -5 5 -10 10 -10 6 0 10 5 10 10 0 6 -4 10 -10 10 -5 0
-10 -4 -10 -10z"/>
<path d="M1110 488 c0 -4 4 -8 9 -8 6 0 12 4 15 8 3 5 -1 9 -9 9 -8 0 -15 -4
-15 -9z"/>
<path d="M611 638 c-13 -26 -21 -51 -18 -54 4 -4 10 2 13 12 4 10 13 27 21 36
8 9 13 25 11 35 -2 14 -10 6 -27 -29z"/>
<path d="M86 651 c-8 -12 13 -27 46 -35 20 -5 26 -2 24 10 -4 28 -57 47 -70
25z m61 -17 c-3 -3 -12 -4 -19 -1 -8 3 -5 6 6 6 11 1 17 -2 13 -5z"/>
<path d="M1315 651 c-6 -11 13 -26 22 -17 4 3 0 6 -8 6 -11 0 -11 2 1 10 9 6
10 10 3 10 -6 0 -14 -4 -18 -9z"/>
<path d="M0 630 c0 -11 4 -20 9 -20 11 0 22 26 14 34 -12 12 -23 5 -23 -14z"/>
<path d="M230 630 c-6 -11 -17 -20 -25 -20 -11 0 -15 -13 -15 -49 0 -27 -3
-56 -6 -65 -3 -9 -1 -16 5 -16 6 0 11 9 11 19 0 11 5 21 11 23 6 2 12 18 13
35 1 18 11 43 24 57 26 31 27 36 7 36 -8 0 -19 -9 -25 -20z m-23 -82 c-3 -8
-6 -5 -6 6 -1 11 2 17 5 13 3 -3 4 -12 1 -19z"/>
<path d="M327 625 c3 -11 6 -38 5 -60 -1 -33 1 -37 10 -22 5 11 8 32 4 48 -3
15 -1 31 4 34 16 10 11 21 -10 21 -16 0 -19 -5 -13 -21z"/>
<path d="M371 632 c-5 -9 -9 -28 -9 -42 0 -89 -5 -159 -12 -155 -4 3 -6 15 -4
28 2 12 1 16 -2 9 -10 -22 -36 24 -29 51 4 15 3 18 -3 8 -5 -7 -12 -9 -15 -4
-3 5 2 16 12 25 22 19 17 68 -6 68 -12 0 -14 -7 -10 -30 6 -29 -6 -50 -18 -30
-4 7 -12 7 -26 0 -15 -9 -19 -22 -20 -68 -1 -44 -3 -51 -9 -32 -5 17 -8 19 -9
8 -1 -10 -6 -18 -12 -18 -8 0 -8 -5 1 -15 7 -8 16 -12 21 -9 9 5 14 -30 11
-81 -2 -23 0 -26 8 -15 5 8 10 10 10 4 0 -23 34 -25 50 -3 l17 21 12 -30 c7
-17 20 -33 29 -35 12 -3 11 -5 -4 -6 -12 0 -25 6 -28 15 -4 10 -13 13 -28 9
-35 -10 -68 -27 -68 -37 0 -4 18 2 40 13 44 23 65 21 28 -3 -31 -20 -67 -28
-74 -17 -7 13 -34 11 -34 -2 0 -5 4 -8 9 -4 6 3 14 -2 20 -12 9 -16 12 -16 51
5 23 12 52 22 63 21 20 -1 20 -2 -3 -9 l-25 -8 28 -1 c15 -1 27 4 27 9 0 6 7
10 15 10 25 0 55 38 55 69 0 16 6 32 13 34 9 4 9 8 1 14 -8 5 -9 26 -4 63 4
35 3 61 -4 73 -8 13 -8 20 0 25 6 4 13 21 17 37 3 17 8 39 12 50 5 15 3 14 -8
-4 -10 -17 -16 -20 -22 -11 -4 7 -2 16 6 21 11 7 11 9 -3 9 -9 0 -19 -6 -21
-12 -4 -10 -6 -10 -6 0 -1 18 -29 15 -40 -6z m42 -19 c9 3 18 -1 21 -9 10 -25
6 -40 -5 -21 -7 12 -17 15 -34 11 -20 -5 -23 -3 -18 16 4 15 8 18 13 9 5 -6
15 -9 23 -6z"/>
<path d="M710 640 c0 -5 5 -10 10 -10 6 0 10 5 10 10 0 6 -4 10 -10 10 -5 0
-10 -4 -10 -10z"/>
<path d="M753 643 c4 -3 -1 -15 -10 -26 -13 -15 -14 -18 -3 -12 13 8 13 7 1
-9 -14 -16 -15 -16 -28 6 -9 14 -12 16 -9 5 3 -10 6 -25 6 -33 0 -9 4 -12 10
-9 5 3 12 -6 16 -21 6 -23 8 -24 17 -9 7 12 5 20 -4 27 -10 6 -7 7 8 3 18 -5
22 -3 17 10 -4 10 -2 15 7 13 9 -2 15 8 17 30 3 29 1 32 -24 32 -15 0 -24 -3
-21 -7z"/>
<path d="M820 640 c0 -5 24 -10 54 -10 30 0 58 5 61 10 4 6 -17 10 -54 10 -34
0 -61 -4 -61 -10z"/>
<path d="M1125 640 c-3 -5 -1 -10 4 -10 6 0 11 5 11 10 0 6 -2 10 -4 10 -3 0
-8 -4 -11 -10z"/>
<path d="M1250 645 c0 -7 30 -13 34 -7 3 4 -4 9 -15 9 -10 1 -19 0 -19 -2z"/>
<path d="M1810 643 c21 -9 40 -36 35 -50 -7 -21 9 -15 23 8 7 12 11 24 7 27
-3 4 -10 0 -15 -8 -8 -12 -10 -10 -10 8 0 18 -5 22 -27 21 -17 0 -22 -3 -13
-6z"/>
<path d="M80 616 c0 -2 18 -13 40 -24 22 -11 40 -16 40 -13 0 4 -16 15 -35 24
-37 17 -45 20 -45 13z"/>
<path d="M472 572 c-1 -28 3 -54 9 -57 18 -11 10 -34 -11 -30 -13 3 -20 -2
-20 -12 0 -11 4 -13 13 -6 6 6 20 9 30 7 14 -2 18 2 14 17 -3 10 -2 21 3 24 8
5 -7 55 -27 90 -9 16 -11 11 -11 -33z"/>
<path d="M2060 605 c-7 -8 -19 -15 -28 -15 -22 0 -10 -9 26 -19 25 -8 30 -6
25 5 -3 8 -10 14 -17 14 -6 0 -4 4 4 10 8 5 12 12 9 15 -4 3 -12 -1 -19 -10z"/>
<path d="M79 556 c-7 -14 -16 -23 -20 -20 -5 3 -9 1 -9 -5 0 -5 6 -12 13 -14
8 -4 8 -8 2 -14 -5 -4 -11 -19 -12 -33 -2 -37 -31 -169 -40 -183 -15 -24 -10
-32 22 -34 25 -2 34 2 42 19 l10 22 5 -22 c4 -12 2 -20 -3 -16 -5 3 -9 -4 -9
-15 0 -22 -33 -30 -45 -11 -11 17 -35 11 -35 -9 0 -20 18 -31 53 -31 18 0 19
-2 7 -10 -13 -8 -12 -10 3 -10 9 0 17 7 17 15 0 8 7 15 15 15 8 0 22 11 31 25
14 22 15 30 4 50 -7 13 -10 33 -7 45 3 14 1 20 -6 17 -7 -2 -11 -17 -10 -33 3
-28 2 -28 -7 -5 -7 16 -7 28 1 37 19 23 34 16 52 -23 20 -44 15 -57 -7 -16
-19 35 -21 16 -2 -27 13 -32 14 -33 25 -12 6 12 19 22 27 22 8 0 24 5 35 11
18 9 19 12 6 22 -17 13 -35 63 -20 54 6 -4 8 4 5 19 -3 19 -7 22 -13 12 -6 -9
-9 -7 -9 8 0 11 -3 24 -7 28 -4 3 -16 37 -28 74 -18 59 -24 67 -48 70 -21 3
-29 -2 -38 -22z"/>
<path d="M10 565 c-7 -28 -5 -174 2 -163 8 12 3 -36 -8 -87 -5 -19 -4 -19 6
-2 6 10 13 39 14 65 2 26 7 55 11 64 10 24 1 53 -16 50 -10 -2 -9 2 4 11 9 8
17 23 17 35 0 11 6 23 13 25 7 3 5 6 -5 6 -13 1 -18 -7 -19 -26 l-1 -28 -8 30
c-4 17 -9 26 -10 20z m20 -101 c0 -14 -4 -23 -9 -20 -5 3 -7 15 -4 26 7 28 13
25 13 -6z"/>
<path d="M1611 554 c0 -11 3 -14 6 -6 3 7 2 16 -1 19 -3 4 -6 -2 -5 -13z"/>
<path d="M2100 553 c0 -12 5 -25 10 -28 13 -8 13 15 0 35 -8 12 -10 11 -10 -7z"/>
<path d="M2126 537 c2 -50 5 -54 14 -24 9 28 4 57 -9 57 -3 0 -5 -15 -5 -33z"/>
<path d="M160 551 c0 -6 5 -13 10 -16 6 -3 10 1 10 9 0 9 -4 16 -10 16 -5 0
-10 -4 -10 -9z"/>
<path d="M2151 504 c0 -11 3 -14 6 -6 3 7 2 16 -1 19 -3 4 -6 -2 -5 -13z"/>
<path d="M330 494 c0 -8 5 -12 10 -9 6 4 8 11 5 16 -9 14 -15 11 -15 -7z"/>
<path d="M525 480 c-3 -5 -1 -10 4 -10 6 0 11 5 11 10 0 6 -2 10 -4 10 -3 0
-8 -4 -11 -10z"/>
<path d="M957 454 c-4 -4 -7 -17 -7 -28 0 -17 2 -18 10 -6 8 12 10 12 10 1 0
-8 2 -12 5 -9 3 3 2 15 -3 27 -4 12 -11 19 -15 15z"/>
<path d="M1321 444 c0 -11 3 -14 6 -6 3 7 2 16 -1 19 -3 4 -6 -2 -5 -13z"/>
<path d="M1242 359 c-2 -60 2 -71 24 -62 18 7 18 23 0 23 -11 0 -16 14 -19 48
l-3 47 -2 -56z"/>
<path d="M505 360 c-3 -5 -1 -10 4 -10 6 0 11 5 11 10 0 6 -2 10 -4 10 -3 0
-8 -4 -11 -10z"/>
<path d="M967 333 c-4 -3 -7 -11 -7 -17 0 -6 5 -5 12 2 6 6 9 14 7 17 -3 3 -9
2 -12 -2z"/>
<path d="M673 295 c-7 -21 -10 -41 -8 -44 3 -2 5 1 5 7 0 7 4 12 10 12 5 0 7
-15 5 -32 -6 -45 3 -68 26 -68 24 0 24 11 -2 44 -11 14 -18 29 -16 33 3 5 2
26 -2 48 l-6 40 -12 -40z"/>
<path d="M1660 299 c-25 -9 -25 -9 3 -5 42 5 42 -11 -1 -19 l-37 -7 55 -20
c56 -19 115 -21 115 -3 0 14 -55 31 -63 19 -4 -5 -23 -7 -42 -3 l-35 6 33 2
c29 1 32 3 22 21 -12 22 -13 22 -50 9z"/>
<path d="M1283 293 c-7 -3 -13 -12 -13 -21 0 -14 2 -14 9 -3 7 10 10 10 13 1
2 -7 10 -11 16 -9 10 3 10 8 0 20 -7 9 -19 15 -25 12z"/>
<path d="M1874 272 c-18 -10 -24 -17 -16 -20 8 -2 19 1 25 7 6 6 20 11 32 11
11 0 26 4 33 8 24 16 -45 9 -74 -6z"/>
<path d="M1820 260 c-9 -6 -10 -10 -3 -10 6 0 15 5 18 10 8 12 4 12 -15 0z"/>
<path d="M827 223 c3 -7 17 -13 31 -13 14 0 22 -3 19 -6 -8 -9 11 -44 23 -44
6 0 9 6 8 13 -2 8 7 11 27 10 24 -2 26 -1 10 6 -19 8 -18 9 5 13 l25 5 -27 2
c-15 0 -30 6 -33 11 -5 8 -11 8 -20 0 -8 -7 -16 -7 -19 -2 -3 5 -17 12 -30 14
-17 4 -23 1 -19 -9z m83 -23 c-20 -13 -33 -13 -25 0 3 6 14 10 23 10 15 0 15
-2 2 -10z"/>
<path d="M1240 232 c0 -6 -10 -12 -22 -14 -17 -2 -23 -10 -23 -28 0 -40 29
-36 44 5 7 20 10 39 7 42 -3 4 -6 1 -6 -5z"/>
<path d="M983 194 c-17 -18 -16 -19 7 -21 21 -2 24 5 12 23 -5 9 -10 8 -19 -2z"/>
<path d="M1095 200 c3 -5 8 -10 11 -10 2 0 4 5 4 10 0 6 -5 10 -11 10 -5 0 -7
-4 -4 -10z"/>
<path d="M180 185 c0 -8 7 -15 15 -15 8 0 15 7 15 15 0 8 -7 15 -15 15 -8 0
-15 -7 -15 -15z"/>
<path d="M486 193 c-12 -12 -5 -23 14 -23 11 0 20 4 20 9 0 11 -26 22 -34 14z"/>
<path d="M1600 185 c0 -8 3 -15 8 -16 4 0 15 -2 25 -4 11 -2 17 3 17 16 0 14
-7 19 -25 19 -16 0 -25 -6 -25 -15z"/>
<path d="M260 180 c0 -5 14 -10 31 -10 17 0 28 4 24 10 -3 6 -17 10 -31 10
-13 0 -24 -4 -24 -10z"/>
<path d="M1045 170 c-3 -5 1 -10 9 -10 9 0 16 5 16 10 0 6 -4 10 -9 10 -6 0
-13 -4 -16 -10z"/>
<path d="M1097 113 c-12 -11 -8 -23 8 -23 8 0 15 7 15 15 0 16 -12 20 -23 8z"/>
</g>
</svg>
